<svg xmlns="http://www.w3.org/2000/svg" viewBox="0 0 506.53 510.66"><defs><style>.cls-1{fill:none;stroke:#fff;stroke-linecap:round;stroke-linejoin:round;stroke-width:5px;}</style></defs><g id="Layer_2" data-name="Layer 2"><g id="Layer_1-2" data-name="Layer 1"><ellipse class="cls-1" cx="254.03" cy="319.49" rx="60.7" ry="69.39"/><ellipse class="cls-1" cx="129.91" cy="333.12" rx="41.78" ry="49.4"/><path class="cls-1" d="M141.27,489.15V442.61c0-3.31.64-23.1,21.47-37.94,18-12.86,39.2-13.4,44.35-13.42h95c4.25,0,29.67.5,48.69,16.8,16.41,14.06,17.11,30.53,17.14,34.56v46.54"/><polyline class="cls-1" points="232.04 391.25 245.35 412.64 232.04 490.58 254.03 508.16 277.67 491.05 264.36 412.16 275.77 391.25"/><path class="cls-1" d="M51.93,489.15V428.47c0-3,.42-20.52,14.81-33.78a47,47,0,0,1,31.14-12.17h65.88c12.82,0,22.37,7.13,29.1,10.39"/><ellipse class="cls-1" cx="379.36" cy="333.12" rx="41.78" ry="49.4"/><path class="cls-1" d="M455.67,489.15V428.47c0-3-.42-20.52-14.81-33.78a47,47,0,0,0-31.14-12.17H343.84c-12.82,0-22.37,7.13-29.1,10.39"/><polyline class="cls-1" points="2.5 428.47 2.5 155.77 153.63 125.56"/><polyline class="cls-1" points="504.03 428.47 504.03 155.77 352.9 125.56"/><polyline class="cls-1" points="153.63 292.45 153.63 46.7 353.97 46.7 353.97 292.45"/><rect class="cls-1" x="183.76" y="2.5" width="140.08" height="44.2"/><rect class="cls-1" x="185.48" y="91.37" width="48.95" height="48.95"/><rect class="cls-1" x="272.69" y="91.37" width="48.95" height="48.95"/><rect class="cls-1" x="185.48" y="169.57" width="48.95" height="48.95"/><rect class="cls-1" x="272.69" y="169.57" width="48.95" height="48.95"/><rect class="cls-1" x="55.85" y="194.88" width="47.29" height="47.29"/><rect class="cls-1" x="404.82" y="194.88" width="47.29" height="47.29"/></g></g></svg>