<svg xmlns="http://www.w3.org/2000/svg" viewBox="0 0 495.41 500.48"><defs><style>.cls-1{fill:none;stroke:#fff;stroke-linecap:round;stroke-linejoin:round;stroke-width:5px;}</style></defs><g id="Layer_2" data-name="Layer 2"><g id="Layer_1-2" data-name="Layer 1"><circle class="cls-1" cx="248.63" cy="251.01" r="190.75"/><path class="cls-1" d="M64.54,201a114.44,114.44,0,0,0,26.25,30.81c1.92,1.57,34.08,27.5,45.62,18.53,5-3.88,5.27-13.66,2.85-20.31-4.64-12.78-18.55-12.33-23.17-25-2-5.62-2.19-13.6,1.36-19.53,8.31-13.86,28.25-2.19,52.7-16.4,15.3-8.91,29.23-26.13,35.76-34.21,5.85-7.23,6.64-9.33,11.05-12.48,15.19-10.81,30.66-3.6,37.21-13.11,3.13-4.55,3.41-11.78.58-16.47-5.56-9.17-20.19-3.83-36.36-13.54a48,48,0,0,1-14.46-13.68"/><path class="cls-1" d="M344.67,86.18A59.49,59.49,0,0,1,328.17,91c-11,1.52-14.36-1.24-21,1.07-7.85,2.72-16.64,11.22-16.39,21.38s9.51,18.64,18.35,20.93c14.43,3.75,20-10.88,36.54-9.16,15.51,1.6,19.5,15.33,34.93,15,7.82-.19,14.11-3.89,18.14-6.9"/><path class="cls-1" d="M421.85,171.05c-6.21,6.43-18,16.35-34.51,18.31-14.13,1.69-25.93-3.14-35.64-7.12-17.32-7.09-18-12.75-32.88-16.61-8.46-2.2-19.75-5.14-30.57.92-8.46,4.74-14.91,14-15.68,23.53-.29,3.54,1.35,9.25,4.63,20.67,2.48,8.61,3.75,13,5.33,14.78,8.24,9.46,25.72,6.8,28.89,6.25,12.79-2.2,14.45-8.19,22.81-7.13,9.27,1.17,17,9.77,20.32,17.82,5.64,13.87-4.58,19.88-.36,33.86,4.77,15.79,19.58,14.1,24.95,30.66,4.09,12.63-3,18.22.71,31,3.67,12.53,14.41,20.49,23,25.28"/><path class="cls-1" d="M180.25,234.28c-3.59-.41-9.76,3.17-22.1,10.33C143.77,253,141.92,256,141,257.8c-2.61,5.34-2.27,11.1-1.78,19.25.26,4.35.51,8.52,1.78,12.47,4.6,14.31,18.66,13.48,26.74,26.38,5.46,8.72-.86,9.29,4.27,32.43,4,18,7.34,15.45,12.83,37.07,1.09,4.29,2,8.5,5.71,12.12,5.47,5.36,15.72,8.13,20.79,4.24,7.65-5.86-4.35-20.91,3.45-33.82,8-13.33,27.92-9,32.07-21.39,2.67-7.94-4.4-13-.71-19.6,4.17-7.48,14.35-3.27,22.81-11.05,9.67-8.9,10.86-27.73,3.92-33.51-4.22-3.51-8.15.55-15.68-2.49-11-4.45-9-15.72-18.89-21.74-11.24-6.86-19.37,4.36-33.15-1.43C191,250.77,191.77,235.59,180.25,234.28Z"/><path class="cls-1" d="M40.88,173.85A356.56,356.56,0,0,1,8.09,89.92C3.39,70.91,2,58.28,6.67,45c0,0,7.13-20.49,29.22-34.22C72.32-11.85,179.06,33.33,287.54,130.55c118.57,106.27,239,274.5,196.75,339.33-8.17,12.55-21.34,19.54-23.52,20.67-54.88,28.44-133.19-33.32-144-42.06"/><path class="cls-1" d="M322.47,42.47c64-40.33,122-51.42,149-27.4,11.28,10,15.82,25,17.35,42.9,1.75,20.53,3.94,96.41-133.55,247.24C248.37,422.47,177.38,453,158.28,460.79c-39.41,16-112.42,45.77-142.35,14.79C-8.86,449.92,1.08,387.93,42.31,325.17"/></g></g></svg>