<svg xmlns="http://www.w3.org/2000/svg" viewBox="0 0 511.7 501.08"><defs><style>.cls-1{fill:none;stroke:#fff;stroke-linecap:round;stroke-linejoin:round;stroke-width:5px;}</style></defs><g id="Layer_2" data-name="Layer 2"><g id="Layer_1-2" data-name="Layer 1"><path class="cls-1" d="M207.74,446.78h95a4,4,0,0,1,4,4v29.55a18.21,18.21,0,0,1-18.21,18.21h-66.7a18.21,18.21,0,0,1-18.21-18.21V450.82A4,4,0,0,1,207.74,446.78Z"/><path class="cls-1" d="M203.7,428.72H306.82a103.77,103.77,0,0,1,8.68-31.6c11.66-25.46,30-36.95,42.06-48.48,15.24-14.57,32-40.27,36.71-89,0-9.24-.89-64.22-45.62-105.65-37.65-34.86-81.85-37.46-93.39-37.78-10.56.24-57.51,2.48-96.24,40.27-42.35,41.34-42.84,93.92-42.77,103.16,5.17,49.72,22.2,75.72,37.78,90.39,10.05,9.45,26.47,20.76,38.5,44.2A115.8,115.8,0,0,1,203.7,428.72Z"/><path class="cls-1" d="M342.94,200.13l14.74-9.27a122.41,122.41,0,0,1,0,129.51l-14.74-9a107.76,107.76,0,0,0,0-111.21Z"/><polygon class="cls-1" points="333.2 324.88 321.08 336.29 332.01 349.83 346.03 335.34 333.2 324.88"/><rect class="cls-1" x="188.85" y="3.31" width="15.68" height="69.77" transform="translate(-2.9 55.74) rotate(-16.01)"/><rect class="cls-1" x="88.67" y="62.01" width="15.68" height="69.77" transform="translate(-40.25 96.62) rotate(-45)"/><rect class="cls-1" x="30.38" y="162.81" width="15.68" height="69.77" transform="translate(-162.34 179.9) rotate(-73.99)"/><rect class="cls-1" x="30.38" y="279.36" width="15.68" height="69.77" transform="translate(-255.2 433.04) rotate(-105.11)"/><rect class="cls-1" x="89.02" y="380.27" width="15.68" height="69.77" transform="translate(-128.21 777.21) rotate(-135)"/><rect class="cls-1" x="407.36" y="62.01" width="15.68" height="69.77" transform="translate(640.27 459.01) rotate(-135)"/><rect class="cls-1" x="465.64" y="162.81" width="15.68" height="69.77" transform="translate(414.08 707.34) rotate(-106.01)"/><rect class="cls-1" x="465.64" y="279.36" width="15.68" height="69.77" transform="translate(46.71 689.48) rotate(-74.89)"/><rect class="cls-1" x="407" y="380.27" width="15.68" height="69.77" transform="translate(-172.06 414.94) rotate(-45)"/><rect class="cls-1" x="305.42" y="3.31" width="15.68" height="69.77" transform="translate(603.83 161.33) rotate(-163.99)"/></g></g></svg>