<svg xmlns="http://www.w3.org/2000/svg" viewBox="0 0 436.4 450"><defs><style>.cls-1{fill:none;stroke:#fff;stroke-linecap:round;stroke-linejoin:round;stroke-width:5px;}</style></defs><g id="Layer_2" data-name="Layer 2"><g id="Layer_1-2" data-name="Layer 1"><circle class="cls-1" cx="146.69" cy="201.36" r="144.19"/><circle class="cls-1" cx="248.65" cy="303.31" r="144.19"/><line class="cls-1" x1="247.53" y1="159.14" x2="290.87" y2="202.48"/><line class="cls-1" x1="218.9" y1="161.78" x2="288.95" y2="231.83"/><line class="cls-1" x1="194.71" y1="168.86" x2="281.1" y2="255.25"/><line class="cls-1" x1="174.01" y1="179.43" x2="270.91" y2="276.33"/><line class="cls-1" x1="155.68" y1="192.37" x2="257.61" y2="294.3"/><line class="cls-1" x1="140.04" y1="208" x2="241.97" y2="309.94"/><line class="cls-1" x1="127.11" y1="226.34" x2="224" y2="323.24"/><line class="cls-1" x1="116.53" y1="247.03" x2="202.92" y2="333.42"/><line class="cls-1" x1="109.46" y1="271.23" x2="179.5" y2="341.28"/><line class="cls-1" x1="106.81" y1="299.86" x2="150.15" y2="343.19"/><polyline class="cls-1" points="269.2 125.26 269.2 2.5 433.9 2.5 433.9 279.86 390.92 279.86"/><rect class="cls-1" x="304.94" y="31.88" width="35.98" height="35.98"/><rect class="cls-1" x="362.18" y="31.88" width="35.98" height="35.98"/><rect class="cls-1" x="304.94" y="84.16" width="35.98" height="35.98"/><rect class="cls-1" x="362.18" y="84.16" width="35.98" height="35.98"/><rect class="cls-1" x="362.18" y="136.44" width="35.98" height="35.98"/><polyline class="cls-1" points="304.94 170.53 304.94 136.44 340.92 136.44 340.92 172.42 309.2 172.42"/></g></g></svg>