<svg xmlns="http://www.w3.org/2000/svg" viewBox="0 0 521.3 501.08"><defs><style>.cls-1{fill:none;stroke:#fff;stroke-linecap:round;stroke-linejoin:round;stroke-width:5px;}</style></defs><g id="Layer_2" data-name="Layer 2"><g id="Layer_1-2" data-name="Layer 1"><line class="cls-1" x1="2.5" y1="2.5" x2="518.8" y2="2.5"/><line class="cls-1" x1="2.5" y1="45.31" x2="518.8" y2="45.31"/><polyline class="cls-1" points="21.86 45.31 64.38 2.5 105.15 45.31"/><polyline class="cls-1" points="109 45.31 151.51 2.5 192.28 45.31"/><polyline class="cls-1" points="196.53 45.31 239.05 2.5 279.82 45.31"/><polyline class="cls-1" points="283.11 45.31 325.62 2.5 366.39 45.31"/><polyline class="cls-1" points="370.94 45.31 413.45 2.5 454.22 45.31"/><line class="cls-1" x1="460.42" y1="45.31" x2="499.44" y2="2.5"/><path class="cls-1" d="M242.76,78.5h35.77a26.38,26.38,0,0,1,26.38,26.38v56.33a0,0,0,0,1,0,0H216.39a0,0,0,0,1,0,0V104.88A26.38,26.38,0,0,1,242.76,78.5Z"/><path class="cls-1" d="M449.86,92.53h35.77A26.38,26.38,0,0,1,512,118.9v56.33a0,0,0,0,1,0,0H423.48a0,0,0,0,1,0,0V118.9a26.38,26.38,0,0,1,26.38-26.38Z" transform="translate(80.37 -160.48) rotate(21.26)"/><path class="cls-1" d="M18.83,85.85h88.53a0,0,0,0,1,0,0v56.33A26.38,26.38,0,0,1,81,168.55H45.2a26.38,26.38,0,0,1-26.38-26.38V85.85a0,0,0,0,1,0,0Z" transform="translate(199.16 167.75) rotate(132.98)"/><line class="cls-1" x1="227.68" y1="161.21" x2="119.35" y2="486.77"/><line class="cls-1" x1="293.62" y1="161.21" x2="401.95" y2="486.77"/><path class="cls-1" d="M417.8,158.82,292.94,338"/><line class="cls-1" x1="486.74" y1="185.64" x2="424.86" y2="434.94"/><line class="cls-1" x1="113.39" y1="133.88" x2="215.14" y2="198.9"/><line class="cls-1" x1="68.04" y1="182.54" x2="210.39" y2="389.51"/><path class="cls-1" d="M300.59,382.93l12,24.4a5.14,5.14,0,0,0,3.85,2.79L343.41,414a5.11,5.11,0,0,1,2.83,8.72l-19.49,19a5.12,5.12,0,0,0-1.47,4.52l4.6,26.82a5.1,5.1,0,0,1-7.41,5.38L298.39,465.8a5.13,5.13,0,0,0-4.76,0l-24.08,12.66a5.1,5.1,0,0,1-7.41-5.38l4.6-26.82a5.12,5.12,0,0,0-1.47-4.52l-19.48-19a5.11,5.11,0,0,1,2.83-8.72l26.92-3.91a5.12,5.12,0,0,0,3.85-2.79l12-24.4A5.11,5.11,0,0,1,300.59,382.93Z"/><path class="cls-1" d="M202.67,436.77l7.75,15.69a3.26,3.26,0,0,0,2.47,1.79l17.31,2.52a3.29,3.29,0,0,1,1.83,5.6L219.5,474.58a3.29,3.29,0,0,0-.95,2.91l3,17.25a3.29,3.29,0,0,1-4.77,3.46l-15.48-8.14a3.25,3.25,0,0,0-3.06,0l-15.49,8.14a3.28,3.28,0,0,1-4.76-3.46l3-17.25a3.32,3.32,0,0,0-.95-2.91l-12.53-12.21a3.28,3.28,0,0,1,1.82-5.6l17.32-2.52a3.26,3.26,0,0,0,2.47-1.79l7.74-15.69A3.28,3.28,0,0,1,202.67,436.77Z"/></g></g></svg>